<?xml version="1.0" standalone="no"?>
<!DOCTYPE svg PUBLIC "-//W3C//DTD SVG 20010904//EN"
 "http://www.w3.org/TR/2001/REC-SVG-20010904/DTD/svg10.dtd">
<svg version="1.0" xmlns="http://www.w3.org/2000/svg"
 width="639.000000pt" height="639.000000pt" viewBox="0 0 639.000000 639.000000"
 preserveAspectRatio="xMidYMid meet">
<metadata>
Created by potrace 1.14, written by Peter Selinger 2001-2017
</metadata>
<g transform="translate(0.000000,639.000000) scale(0.100000,-0.100000)"
fill="#000000" stroke="none">
<path d="M2979 6386 c-2 -2 -38 -6 -79 -10 -41 -3 -86 -8 -100 -10 -14 -3 -59
-10 -100 -16 -259 -39 -524 -116 -775 -223 -101 -43 -332 -165 -418 -220 -48
-31 -92 -57 -97 -57 -4 0 -10 -4 -12 -8 -1 -5 -19 -20 -39 -33 -120 -79 -329
-257 -452 -386 -113 -118 -129 -136 -172 -188 -22 -28 -43 -51 -47 -53 -5 -2
-8 -10 -8 -18 0 -8 -4 -14 -8 -14 -5 0 -26 -26 -48 -57 -21 -32 -43 -63 -49
-70 -5 -7 -16 -19 -23 -27 -6 -8 -12 -17 -12 -20 0 -2 -28 -48 -62 -102 -56
-90 -185 -335 -215 -409 -7 -17 -22 -52 -33 -80 -65 -152 -170 -527 -186 -660
0 -5 -4 -30 -8 -55 -25 -156 -31 -250 -31 -465 0 -182 7 -321 20 -415 41 -278
91 -480 177 -710 46 -123 124 -303 148 -340 6 -8 14 -24 19 -36 5 -11 30 -55
55 -98 25 -43 46 -81 46 -85 0 -4 8 -16 18 -27 10 -10 29 -37 42 -59 13 -22
28 -44 32 -50 4 -5 41 -55 82 -110 75 -100 87 -116 171 -210 131 -150 353
-350 512 -462 92 -65 213 -143 223 -143 5 0 10 -3 10 -7 0 -5 10 -13 23 -19
12 -6 74 -38 137 -72 191 -101 404 -185 628 -246 70 -20 138 -37 152 -40 14
-3 61 -11 105 -20 224 -42 319 -48 653 -43 340 6 328 5 567 52 228 46 413 102
625 192 112 48 344 166 371 189 8 8 19 14 23 14 19 0 341 228 402 285 6 5 42
38 80 71 141 126 251 242 367 389 43 55 84 107 90 115 7 8 23 33 37 55 13 22
26 42 30 45 17 15 106 164 162 270 22 41 43 80 46 85 4 6 7 12 8 15 0 3 15 36
32 74 34 71 121 289 128 316 2 8 19 69 39 135 19 66 38 134 41 150 3 17 9 46
14 65 5 19 11 49 13 65 3 17 10 57 16 90 27 151 36 284 35 525 0 182 -7 326
-19 390 -1 8 -6 35 -10 60 -3 25 -9 59 -11 75 -8 52 -43 215 -56 258 -6 23
-12 47 -14 53 -1 6 -14 51 -29 100 -63 207 -190 493 -303 679 -26 44 -54 91
-62 105 -8 14 -18 27 -21 30 -3 3 -20 28 -39 55 -39 58 -137 187 -175 230
-126 144 -153 173 -318 331 -67 64 -329 264 -346 264 -6 0 -11 4 -11 8 0 5
-12 15 -27 23 -16 8 -30 16 -33 19 -9 9 -150 91 -210 122 -19 10 -42 23 -50
28 -8 6 -44 23 -80 39 -36 16 -86 38 -111 49 -232 105 -564 198 -824 231 -44
6 -100 13 -125 16 -47 7 -525 16 -531 11z"/>
</g>
</svg>
